Coordinates
nRows=112
nColumns=2
inDegrees=yes
endheader
time	ankle_angle_r	
4.0625	 -0.350952	
4.125	 -0.388373	
4.1875	 -0.403813	
4.25	 -0.297910	
4.3125	 -0.343141	
4.375	 -0.381470	
4.4375	 -0.335330	
4.5	 -0.427246	
4.5625	 -0.366211	
4.625	 -0.389826	
4.6875	 -0.442505	
4.75	 -0.350952	
4.8125	 -0.403086	
4.875	 -0.387646	
4.9375	 -0.366211	
5	 -0.451951	
5.0625	 -0.421615	
5.125	 -0.417437	
5.1875	 -0.432514	
5.25	 -0.345866	
5.3125	 -0.391279	
5.375	 -0.401451	
5.4375	 -0.366211	
5.5	 -0.470843	
5.5625	 -0.407809	
5.625	 -0.407991	
5.6875	 -0.438690	
5.75	 -0.354585	
5.8125	 -0.316983	
5.875	 -0.289917	
5.9375	 -0.262488	
6	 -0.341506	
6.0625	 -0.368936	
6.125	 -0.399272	
6.1875	 -0.442505	
6.25	 -0.364031	
6.3125	 -0.394730	
6.375	 -0.398545	
6.4375	 -0.378200	
6.5	 -0.457764	
6.5625	 -0.396729	
6.625	 -0.410897	
6.6875	 -0.443413	
6.75	 -0.350952	
6.8125	 -0.411442	
6.875	 -0.397092	
6.9375	 -0.351134	
7	 -0.473022	
7.0625	 -0.397092	
7.125	 -0.381833	
7.1875	 -0.412532	
7.25	 -0.321888	
7.3125	 -0.320435	
7.375	 -0.350952	
7.4375	 -0.260671	
7.5	 -0.361851	
7.5625	 -0.337328	
7.625	 -0.352769	
7.6875	 -0.396729	
7.75	 -0.302996	
7.8125	 -0.322796	
7.875	 -0.353495	
7.9375	 -0.348227	
8	 -0.381470	
8.0625	 -0.396729	
8.125	 -0.338963	
8.1875	 -0.384921	
8.25	 -0.293550	
8.3125	 -0.381470	
8.375	 -0.389462	
8.4375	 -0.362033	
8.5	 -0.449044	
8.5625	 -0.416529	
8.625	 -0.417800	
8.6875	 -0.427246	
8.75	 -0.366211	
8.8125	 -0.391461	
8.875	 -0.402178	
8.9375	 -0.377473	
9	 -0.436692	
9.0625	 -0.424521	
9.125	 -0.378563	
9.1875	 -0.431061	
9.25	 -0.350952	
9.3125	 -0.396729	
9.375	 -0.405085	
9.4375	 -0.359127	
9.5	 -0.449771	
9.5625	 -0.404540	
9.625	 -0.404358	
9.6875	 -0.427246	
9.75	 -0.327701	
9.8125	 -0.350952	
9.875	 -0.381470	
9.9375	 -0.335693	
10	 -0.438145	
10.0625	 -0.403086	
10.125	 -0.366211	
10.1875	 -0.439780	
10.25	 -0.366211	
10.3125	 -0.387101	
10.375	 -0.392369	
10.4375	 -0.366211	
10.5	 -0.437419	
10.5625	 -0.417437	
10.625	 -0.407264	
10.6875	 -0.457764	
10.75	 -0.366211	
10.8125	 -0.392551	
10.875	 -0.423250	
10.9375	 -0.396729	
11	 -0.427246	
